<svg xmlns="http://www.w3.org/2000/svg" xmlns:xlink="http://www.w3.org/1999/xlink" xmlns:lucid="lucid" width="1242" height="397.56"><g transform="translate(-29 -69)" lucid:page-tab-id="lOQOH9YWLsAu"><path d="M501.5 165H80v-10h421.5zm698.5 0H718.5v-10H1200z"/><path d="M1200 160l-14.27 4.64v-9.28z"/><path d="M1216.18 160l-35.45 11.52v-23.04z"/><use xlink:href="#a" transform="matrix(1,0,0,1,501.495,144.44444444444446) translate(0 22.866666666666667)"/><use xlink:href="#b" transform="matrix(1,0,0,1,501.495,144.44444444444446) translate(14.373333333333335 22.866666666666667)"/><use xlink:href="#c" transform="matrix(1,0,0,1,501.495,144.44444444444446) translate(29.52444444444445 22.866666666666667)"/><use xlink:href="#d" transform="matrix(1,0,0,1,501.495,144.44444444444446) translate(57.866666666666674 22.866666666666667)"/><use xlink:href="#e" transform="matrix(1,0,0,1,501.495,144.44444444444446) translate(79.70666666666668 22.866666666666667)"/><use xlink:href="#f" transform="matrix(1,0,0,1,501.495,144.44444444444446) translate(130.6977777777778 22.866666666666667)"/><use xlink:href="#g" transform="matrix(1,0,0,1,501.495,144.44444444444446) translate(216.01 22.866666666666667)"/><path d="M80 240h40" stroke="#000" stroke-width="10" fill="none"/><path d="M120 240l-14.27 4.64v-9.28z" stroke="#000" stroke-width="10"/><path d="M140 307.67h120v84.66H140z" stroke="#000" stroke-opacity="0" stroke-width="2" fill="#fff" fill-opacity="0"/><use xlink:href="#h" transform="matrix(1,0,0,1,145,312.66666666666663) translate(10.542222222222222 29.255555555555553)"/><use xlink:href="#i" transform="matrix(1,0,0,1,145,312.66666666666663) translate(79.0488888888889 29.255555555555553)"/><use xlink:href="#j" transform="matrix(1,0,0,1,145,312.66666666666663) translate(13.948888888888888 60.36666666666667)"/><use xlink:href="#k" transform="matrix(1,0,0,1,145,312.66666666666663) translate(56.415555555555564 60.36666666666667)"/><path d="M140 350H92.67V240" stroke="#000" stroke-width="2" fill="none"/><path/><path d="M320 80v360" fill="none"/><path d="M320 80v20m0 20v40m0 20v40m0 20v40m0 20v40m0 20v40m0 20v20" stroke="#000" stroke-width="2" fill="none"/><g><use xlink:href="#l" transform="matrix(1,0,0,1,242.9333333333333,424.4444444444444) translate(0 22.866666666666667)"/></g><defs><path d="M123-142c0 13 3 51 28 51 23 0 42-15 42-33v-140c-49 21-70 70-70 122zm-99 15c0-185 159-197 169-230v-60s0-50-28-50c-34 0-28 50-29 81H35c-8-96 52-169 136-169 66 0 123 53 123 124 0 138-7 307 7 431h-99c-9-10-9-38-9-44h-7c-10 19-40 52-81 52-27 0-81-20-81-135" id="m"/><use transform="matrix(0.031111111111111114,0,0,0.031111111111111114,0,0)" xlink:href="#m" id="b"/><path d="M40 0v-735h101v224s43-44 80-44c55 0 78 62 78 107v349c0 45-23 107-78 107-37 0-80-44-80-44V0H40zm101-120c1 41 57 44 57 0v-307c2-46-57-39-57 0v307" id="n"/><path d="M141 0H40v-547h101V0zM40-634v-101h101v101H40" id="o"/><path d="M61-682h101v135h69v91h-69v272c0 34 0 90 32 90 17 0 37-4 37-4V1s-22 7-54 7C61 8 61-112 61-176v-280H10v-91h51v-135" id="p"/><g id="c"><use transform="matrix(0.031111111111111114,0,0,0.031111111111111114,0,0)" xlink:href="#n"/><use transform="matrix(0.031111111111111114,0,0,0.031111111111111114,10.422222222222222,0)" xlink:href="#o"/><use transform="matrix(0.031111111111111114,0,0,0.031111111111111114,15.928888888888888,0)" xlink:href="#p"/></g><path d="M290-414v281S291 8 160 8C30 8 31-136 31-136v-275s-1-144 129-144c131 0 130 141 130 141zm-95 3s3-56-35-56c-37 0-34 56-34 56v275s-3 55 34 55c38 0 35-55 35-55v-275" id="q"/><path d="M194-649c-38 0-31 70-32 102h51v91h-51V0H61v-456H10v-91h51c0-69-6-192 116-192 32 0 47 7 47 7v87s-13-4-30-4" id="r"/><g id="d"><use transform="matrix(0.031111111111111114,0,0,0.031111111111111114,0,0)" xlink:href="#q"/><use transform="matrix(0.031111111111111114,0,0,0.031111111111111114,9.831111111111113,0)" xlink:href="#r"/></g><path d="M133-421v295c0 20 1 44 28 44 46 0 24-80 29-120h101v53C291-27 246 8 161 8 88 8 32-32 32-154v-239c0-122 56-162 129-162 85 0 130 35 130 157v43H190c-4-38 15-110-29-110-27 0-28 24-28 44" id="s"/><path d="M141 0H40v-735h101V0" id="t"/><path d="M163-90c20 0 33-26 33-26v-431h101V0H196v-46c-8 5-47 54-82 54C60 8 38-54 38-99v-448h101v433c0 21 12 24 24 24" id="u"/><path d="M295-735V0H194v-36S151 8 114 8C59 8 36-54 36-99v-349c0-45 23-107 78-107 37 0 80 44 80 44v-224h101zM194-120v-307c0-16-15-33-30-33s-27 14-27 33v307c-1 44 56 42 57 0" id="v"/><g id="e"><use transform="matrix(0.031111111111111114,0,0,0.031111111111111114,0,0)" xlink:href="#s"/><use transform="matrix(0.031111111111111114,0,0,0.031111111111111114,9.737777777777778,0)" xlink:href="#t"/><use transform="matrix(0.031111111111111114,0,0,0.031111111111111114,15.306666666666665,0)" xlink:href="#q"/><use transform="matrix(0.031111111111111114,0,0,0.031111111111111114,25.293333333333333,0)" xlink:href="#u"/><use transform="matrix(0.031111111111111114,0,0,0.031111111111111114,35.77777777777778,0)" xlink:href="#v"/></g><path d="M366-433c-3-49-65-9-65 2V0h-95v-433c-3-49-65-9-65 2V0H40v-547h101v46c8-5 49-54 84-54 36 0 58 29 68 61 16-12 57-61 92-61 54 0 76 62 76 107V0h-95v-433" id="w"/><path d="M40 188v-735h101v36s43-44 80-44c55 0 78 62 78 107v349c0 45-23 107-78 107-37 0-80-44-80-44v224H40zm101-615v307c0 16 15 33 30 33s27-14 27-33v-307c1-44-56-42-57 0" id="x"/><path d="M199-196h94v63S293 8 162 8C32 8 32-136 32-136v-275s1-144 131-144c131 0 130 141 130 141v159H126v119s0 55 37 55c38 0 36-55 36-55v-60zm-73-215v77h73v-77s2-56-36-56c-37 0-37 56-37 56" id="y"/><g id="f"><use transform="matrix(0.031111111111111114,0,0,0.031111111111111114,0,0)" xlink:href="#s"/><use transform="matrix(0.031111111111111114,0,0,0.031111111111111114,9.8,0)" xlink:href="#q"/><use transform="matrix(0.031111111111111114,0,0,0.031111111111111114,19.724444444444444,0)" xlink:href="#w"/><use transform="matrix(0.031111111111111114,0,0,0.031111111111111114,35.24888888888889,0)" xlink:href="#x"/><use transform="matrix(0.031111111111111114,0,0,0.031111111111111114,45.67111111111112,0)" xlink:href="#u"/><use transform="matrix(0.031111111111111114,0,0,0.031111111111111114,56,0)" xlink:href="#p"/><use transform="matrix(0.031111111111111114,0,0,0.031111111111111114,63.62222222222222,0)" xlink:href="#y"/></g><path d="M242-555v112s-47-15-79 13c-18 16-22 33-22 50V0H40v-547h101v61c3-14 27-69 101-69" id="z"/><path d="M16 194v-90c56 13 97-42 89-88L12-547h99c14 122 30 240 42 364h4c12-124 28-242 42-364h99L201 41c-14 91-72 175-185 153" id="A"/><g id="h"><use transform="matrix(0.031111111111111114,0,0,0.031111111111111114,0,0)" xlink:href="#m"/><use transform="matrix(0.031111111111111114,0,0,0.031111111111111114,10.266666666666667,0)" xlink:href="#t"/><use transform="matrix(0.031111111111111114,0,0,0.031111111111111114,15.89777777777778,0)" xlink:href="#z"/><use transform="matrix(0.031111111111111114,0,0,0.031111111111111114,23.42666666666667,0)" xlink:href="#y"/><use transform="matrix(0.031111111111111114,0,0,0.031111111111111114,33.28888888888889,0)" xlink:href="#m"/><use transform="matrix(0.031111111111111114,0,0,0.031111111111111114,43.64888888888889,0)" xlink:href="#v"/><use transform="matrix(0.031111111111111114,0,0,0.031111111111111114,54.071111111111115,0)" xlink:href="#A"/></g><path d="M174-457c-20 0-33 26-33 26V0H40v-547h101v46c8-5 47-54 82-54 54 0 76 62 76 107V0H198v-433c0-21-12-24-24-24" id="B"/><g id="i"><use transform="matrix(0.031111111111111114,0,0,0.031111111111111114,0,0)" xlink:href="#q"/><use transform="matrix(0.031111111111111114,0,0,0.031111111111111114,9.924444444444445,0)" xlink:href="#B"/></g><g id="j"><use transform="matrix(0.031111111111111114,0,0,0.031111111111111114,0,0)" xlink:href="#A"/><use transform="matrix(0.031111111111111114,0,0,0.031111111111111114,9.551111111111112,0)" xlink:href="#q"/><use transform="matrix(0.031111111111111114,0,0,0.031111111111111114,19.53777777777778,0)" xlink:href="#u"/><use transform="matrix(0.031111111111111114,0,0,0.031111111111111114,30.022222222222226,0)" xlink:href="#z"/></g><path d="M35-407c0-65 26-146 123-148 118-2 129 86 129 148h-94c0-26-1-64-33-64-27 0-31 36-31 64 0 35 35 68 66 98 44 42 93 96 93 167C288-74 255 8 159 8 36 8 18-100 18-159h94c0 29 5 83 47 83 29 0 35-34 35-66 0-33-32-67-63-97-47-45-96-89-96-168" id="C"/><path d="M40-735h101v349c10 0 7-12 11-18l49-143h91l-73 178L311 0h-97c-17-76-34-153-52-229-7-2-6 5-8 8l-13 32V0H40v-735" id="D"/><g id="k"><use transform="matrix(0.031111111111111114,0,0,0.031111111111111114,0,0)" xlink:href="#v"/><use transform="matrix(0.031111111111111114,0,0,0.031111111111111114,10.422222222222222,0)" xlink:href="#y"/><use transform="matrix(0.031111111111111114,0,0,0.031111111111111114,20.315555555555555,0)" xlink:href="#C"/><use transform="matrix(0.031111111111111114,0,0,0.031111111111111114,29.897777777777776,0)" xlink:href="#D"/></g><g id="l"><use transform="matrix(0.031111111111111114,0,0,0.031111111111111114,0,0)" xlink:href="#C"/><use transform="matrix(0.031111111111111114,0,0,0.031111111111111114,9.582222222222223,0)" xlink:href="#q"/><use transform="matrix(0.031111111111111114,0,0,0.031111111111111114,19.506666666666668,0)" xlink:href="#t"/><use transform="matrix(0.031111111111111114,0,0,0.031111111111111114,25.137777777777778,0)" xlink:href="#u"/><use transform="matrix(0.031111111111111114,0,0,0.031111111111111114,35.46666666666667,0)" xlink:href="#p"/><use transform="matrix(0.031111111111111114,0,0,0.031111111111111114,43.08888888888889,0)" xlink:href="#o"/><use transform="matrix(0.031111111111111114,0,0,0.031111111111111114,48.657777777777774,0)" xlink:href="#q"/><use transform="matrix(0.031111111111111114,0,0,0.031111111111111114,58.582222222222214,0)" xlink:href="#B"/></g></defs></g></svg>